<svg width="39" height="39" fill="none" xmlns="http://www.w3.org/2000/svg"><path stroke="#C6CBCD" d="M.5.5h38v38H.5z"/><path d="M26.633 14.978c.013.175.013.349.013.523 0 5.325-4.053 11.461-11.46 11.461-2.282 0-4.402-.661-6.186-1.809.324.037.636.05.973.05a8.07 8.07 0 0 0 5.001-1.721 4.036 4.036 0 0 1-3.767-2.793c.249.037.499.062.761.062.361 0 .724-.05 1.061-.137a4.028 4.028 0 0 1-3.23-3.953v-.05c.537.299 1.16.486 1.82.511a4.023 4.023 0 0 1-1.796-3.354c0-.748.199-1.434.548-2.032a11.457 11.457 0 0 0 8.306 4.215c-.062-.3-.1-.611-.1-.923A4.025 4.025 0 0 1 22.605 11c1.16 0 2.207.486 2.943 1.272a7.958 7.958 0 0 0 2.556-.973c-.3.93-.93 1.72-1.771 2.22a8.071 8.071 0 0 0 2.319-.624 8.647 8.647 0 0 1-2.019 2.083Z" fill="#C6CBCD"/></svg>